<?xml version="1.0" standalone="no"?>
<!DOCTYPE svg PUBLIC "-//W3C//DTD SVG 20010904//EN"
 "http://www.w3.org/TR/2001/REC-SVG-20010904/DTD/svg10.dtd">
<svg version="1.0" xmlns="http://www.w3.org/2000/svg"
 width="851.000000pt" height="1280.000000pt" viewBox="0 0 851.000000 1280.000000"
 preserveAspectRatio="xMidYMid meet">
<metadata>
Created by potrace 1.15, written by Peter Selinger 2001-2017
</metadata>
<g transform="translate(0.000000,1280.000000) scale(0.100000,-0.100000)"
fill="#000000" stroke="none">
<path d="M3541 12784 c-124 -33 -236 -129 -294 -251 -30 -64 -32 -74 -32 -183
0 -109 2 -119 32 -183 38 -80 122 -173 191 -210 275 -150 611 16 663 326 52
312 -252 584 -560 501z"/>
<path d="M4743 12785 c-226 -61 -371 -280 -334 -502 52 -310 388 -476 663
-326 69 37 153 130 191 210 30 64 32 74 32 183 0 109 -2 119 -32 183 -38 80
-122 173 -191 210 -100 54 -224 70 -329 42z"/>
<path d="M2055 11719 c-101 -12 -297 -60 -396 -98 -537 -207 -928 -685 -1015
-1241 -13 -83 -14 -486 -12 -3170 3 -2913 4 -3079 21 -3150 30 -125 94 -305
142 -402 86 -170 166 -281 303 -421 217 -221 421 -339 725 -419 l47 -13 -935
-1403 -935 -1402 542 2 542 3 665 977 666 977 1840 0 1840 0 666 -977 665
-977 542 -3 542 -2 -935 1402 -935 1403 47 13 c235 62 406 145 578 282 72 58
218 205 274 277 145 185 256 425 318 683 17 71 18 237 21 3150 3 3354 6 3150
-53 3355 -180 626 -732 1085 -1387 1155 -121 13 -4266 11 -4383 -1z m3101
-353 c60 -28 117 -91 138 -154 23 -67 23 -557 0 -624 -21 -63 -78 -126 -138
-154 l-51 -24 -850 0 -850 0 -51 24 c-60 28 -117 91 -138 154 -23 67 -23 557
0 624 21 63 78 126 138 154 l51 24 850 0 850 0 51 -24z m1289 -1299 c33 -10
103 -39 155 -65 179 -88 316 -257 381 -472 23 -74 23 -82 27 -729 2 -432 -1
-678 -8 -724 -46 -300 -255 -532 -557 -619 l-78 -23 -2110 0 -2110 0 -79 23
c-302 87 -510 319 -556 620 -7 45 -10 293 -8 723 4 647 4 655 27 729 12 41 43
115 69 165 101 196 309 346 533 384 31 5 945 8 2154 7 1982 -1 2103 -2 2160
-19z m-4012 -5020 c215 -68 387 -239 463 -462 25 -72 28 -94 28 -215 0 -118
-3 -144 -26 -212 -40 -121 -92 -204 -182 -293 -138 -137 -302 -205 -496 -205
-399 0 -710 311 -710 710 0 194 68 358 205 496 107 108 208 164 360 200 89 21
259 12 358 -19z m3985 17 c97 -19 240 -88 312 -150 167 -143 253 -327 254
-544 0 -128 -13 -188 -69 -305 -90 -188 -228 -309 -430 -377 -60 -20 -90 -23
-210 -23 -120 0 -150 3 -210 23 -198 66 -335 185 -425 367 -55 111 -73 189
-73 315 -1 277 148 514 398 635 148 72 296 91 453 59z"/>
</g>
</svg>
